<?xml version="1.0" standalone="no"?><!DOCTYPE svg PUBLIC "-//W3C//DTD SVG 1.1//EN" "http://www.w3.org/Graphics/SVG/1.1/DTD/svg11.dtd"><svg class="icon" width="200px" height="188.06px" viewBox="0 0 1089 1024" version="1.1" xmlns="http://www.w3.org/2000/svg"><path d="M709.08576172 203.25728516c43.08909258 0 83.9300581 18.7343877 114.90424629 52.58118252 15.48709365 16.98584502 27.72689414 36.84429668 36.34471318 59.0757706 8.99250645 23.23064092 13.48875967 47.83513711 13.48875967 73.31390508 0 63.19733555-28.97585332 108.5345543-54.57951738 148.50124893C788.26977529 585.31390508 731.06744346 647.76186494 654.00666084 717.57868467c-46.21149053 41.84013339-88.80099873 76.56119912-107.5353873 91.42381319-3.37219013 2.62281445-8.11823467 2.74771055-11.61532002 0-17.7352207-13.98834316-59.5753541-47.7102419-107.6602834-91.04912579-77.18567871-69.81681972-134.26311445-132.38967568-165.11240655-180.84929238v-0.24979131c-25.60366318-39.96669463-54.57951738-85.30391338-54.5795165-148.62614502 0-25.47876797 4.49625323-50.08326416 13.48875879-73.31390508 8.61781816-22.23147393 20.85761865-42.08992471 36.34471318-59.0757706 30.97418818-33.97169003 71.81515372-52.58118252 114.90424629-52.58118252 24.22980879 0 47.83513711 5.87010849 69.94171494 17.61032549 21.98168174 11.6153209 41.71523731 28.72606201 57.07743575 49.58367978l35.72023359 48.45961758c2.74771055 3.74687753 8.24313076 3.74687753 10.99084042 0l35.97002491-48.33472148c31.84845996-42.7144043 78.1848457-67.31890049 127.14404678-67.31890137m0-51.33222246c-66.1948374 0-127.64363027 33.34721045-168.35969971 88.17651914C500.25978388 185.27227315 438.43630273 151.92506269 372.24146533 151.92506269c-119.27560342 0-216.1948377 106.16153203-216.1948377 236.42797676 0 77.68526221 34.59616963 132.38967568 62.69775206 176.35303917 81.18234844 127.64363027 285.51207305 285.88676133 294.25478731 292.50624462 8.36802685 6.61948418 17.98501289 14.98751016 27.60199892 14.98751015 9.61698604 0 19.35886729-8.36802685 27.60199804-14.98751015 8.74271426-6.61948418 212.69775146-165.36219785 294.25478731-292.50624462 28.10158242-43.83846826 62.69775205-98.66777695 62.69775205-176.35303917C925.28059941 258.08659473 828.36136513 151.92506269 709.08576172 151.92506269z" fill="#ffffff" /></svg>