<?xml version="1.0" standalone="no"?><!DOCTYPE svg PUBLIC "-//W3C//DTD SVG 1.1//EN" "http://www.w3.org/Graphics/SVG/1.1/DTD/svg11.dtd"><svg class="icon" width="200px" height="200.00px" viewBox="0 0 1024 1024" version="1.1" xmlns="http://www.w3.org/2000/svg"><path d="M512 0C229.717333 0 0 229.717333 0 512S229.717333 1024 512 1024 1024 794.282667 1024 512 794.282667 0 512 0z m0 967.133867A455.611733 455.611733 0 0 1 56.866133 512 455.611733 455.611733 0 0 1 512 56.866133 455.611733 455.611733 0 0 1 967.133867 512 455.611733 455.611733 0 0 1 512 967.133867z" fill="#ffffff" /><path d="M369.800533 273.066667a27.784533 27.784533 0 0 0-20.138666 8.738133 30.651733 30.651733 0 0 0-8.328534 21.162667v418.065066c0 16.520533 12.765867 29.9008 28.4672 29.9008 15.701333 0 28.398933-13.380267 28.398934-29.9008V302.967467a30.651733 30.651733 0 0 0-8.328534-21.162667A27.784533 27.784533 0 0 0 369.800533 273.066667z m284.398934 0a27.784533 27.784533 0 0 0-20.0704 8.738133 30.651733 30.651733 0 0 0-8.328534 21.162667v418.065066c0 16.520533 12.6976 29.9008 28.398934 29.9008 15.701333 0 28.4672-13.380267 28.4672-29.9008V302.967467a30.651733 30.651733 0 0 0-8.328534-21.162667A27.784533 27.784533 0 0 0 654.199467 273.066667z" fill="#ffffff" /></svg>